<mxfile host="Electron" agent="Mozilla/5.0 (Windows NT 10.0; Win64; x64) AppleWebKit/537.36 (KHTML, like Gecko) draw.io/26.0.4 Chrome/128.0.6613.186 Electron/32.2.5 Safari/537.36" version="26.0.4">
  <diagram name="Page-1" id="e3a06f82-3646-2815-327d-82caf3d4e204">
    <mxGraphModel dx="1830" dy="1380" grid="1" gridSize="10" guides="1" tooltips="1" connect="1" arrows="1" fold="1" page="1" pageScale="1.5" pageWidth="1169" pageHeight="826" background="none" math="0" shadow="0">
      <root>
        <mxCell id="0" style=";html=1;" />
        <mxCell id="1" style=";html=1;" parent="0" />
        <mxCell id="mdpQiHGGuy0yRPsD_6b5-7" value="" style="rounded=0;whiteSpace=wrap;html=1;align=left;fillColor=#fff2cc;strokeColor=#d6b656;" vertex="1" parent="1">
          <mxGeometry x="15" y="240" width="770" height="520" as="geometry" />
        </mxCell>
        <mxCell id="mdpQiHGGuy0yRPsD_6b5-1" value="" style="verticalLabelPosition=bottom;sketch=0;aspect=fixed;html=1;verticalAlign=top;strokeColor=none;align=center;outlineConnect=0;shape=mxgraph.citrix.desktop;" vertex="1" parent="1">
          <mxGeometry x="77.5" y="410" width="110" height="121.12" as="geometry" />
        </mxCell>
        <mxCell id="mdpQiHGGuy0yRPsD_6b5-3" value="" style="verticalLabelPosition=bottom;sketch=0;aspect=fixed;html=1;verticalAlign=top;strokeColor=none;align=center;outlineConnect=0;shape=mxgraph.citrix.desktop;" vertex="1" parent="1">
          <mxGeometry x="252.5" y="410" width="110" height="121.12" as="geometry" />
        </mxCell>
        <mxCell id="mdpQiHGGuy0yRPsD_6b5-4" value="" style="verticalLabelPosition=bottom;sketch=0;aspect=fixed;html=1;verticalAlign=top;strokeColor=none;align=center;outlineConnect=0;shape=mxgraph.citrix.desktop;" vertex="1" parent="1">
          <mxGeometry x="427.5" y="410" width="110" height="121.12" as="geometry" />
        </mxCell>
        <mxCell id="mdpQiHGGuy0yRPsD_6b5-5" value="" style="verticalLabelPosition=bottom;sketch=0;aspect=fixed;html=1;verticalAlign=top;strokeColor=none;align=center;outlineConnect=0;shape=mxgraph.citrix.desktop;" vertex="1" parent="1">
          <mxGeometry x="602.5" y="410" width="110" height="121.12" as="geometry" />
        </mxCell>
        <mxCell id="mdpQiHGGuy0yRPsD_6b5-10" value="" style="verticalLabelPosition=bottom;sketch=0;aspect=fixed;html=1;verticalAlign=top;strokeColor=none;align=center;outlineConnect=0;shape=mxgraph.citrix.desktop;" vertex="1" parent="1">
          <mxGeometry x="77.5" y="591" width="110" height="121.12" as="geometry" />
        </mxCell>
        <mxCell id="mdpQiHGGuy0yRPsD_6b5-11" value="" style="verticalLabelPosition=bottom;sketch=0;aspect=fixed;html=1;verticalAlign=top;strokeColor=none;align=center;outlineConnect=0;shape=mxgraph.citrix.desktop;" vertex="1" parent="1">
          <mxGeometry x="252.5" y="591" width="110" height="121.12" as="geometry" />
        </mxCell>
        <mxCell id="mdpQiHGGuy0yRPsD_6b5-12" value="" style="verticalLabelPosition=bottom;sketch=0;aspect=fixed;html=1;verticalAlign=top;strokeColor=none;align=center;outlineConnect=0;shape=mxgraph.citrix.desktop;" vertex="1" parent="1">
          <mxGeometry x="427.5" y="591" width="110" height="121.12" as="geometry" />
        </mxCell>
        <mxCell id="mdpQiHGGuy0yRPsD_6b5-13" value="" style="verticalLabelPosition=bottom;sketch=0;aspect=fixed;html=1;verticalAlign=top;strokeColor=none;align=center;outlineConnect=0;shape=mxgraph.citrix.desktop;" vertex="1" parent="1">
          <mxGeometry x="602.5" y="591" width="110" height="121.12" as="geometry" />
        </mxCell>
        <mxCell id="mdpQiHGGuy0yRPsD_6b5-16" value="PC Eleves" style="text;html=1;align=center;verticalAlign=middle;whiteSpace=wrap;rounded=0;fontSize=30;" vertex="1" parent="1">
          <mxGeometry y="311" width="800" height="30" as="geometry" />
        </mxCell>
        <mxCell id="mdpQiHGGuy0yRPsD_6b5-17" value="" style="endArrow=none;dashed=1;html=1;rounded=0;exitX=0;exitY=0;exitDx=0;exitDy=0;" edge="1" parent="1" source="mdpQiHGGuy0yRPsD_6b5-7" target="mdpQiHGGuy0yRPsD_6b5-2">
          <mxGeometry width="50" height="50" relative="1" as="geometry">
            <mxPoint x="5" y="200" as="sourcePoint" />
            <mxPoint x="55" y="150" as="targetPoint" />
          </mxGeometry>
        </mxCell>
        <mxCell id="mdpQiHGGuy0yRPsD_6b5-18" value="" style="endArrow=none;dashed=1;html=1;rounded=0;exitX=1;exitY=0;exitDx=0;exitDy=0;" edge="1" parent="1" source="mdpQiHGGuy0yRPsD_6b5-7" target="mdpQiHGGuy0yRPsD_6b5-2">
          <mxGeometry width="50" height="50" relative="1" as="geometry">
            <mxPoint x="1155" y="200" as="sourcePoint" />
            <mxPoint x="1205" y="150" as="targetPoint" />
          </mxGeometry>
        </mxCell>
        <mxCell id="mdpQiHGGuy0yRPsD_6b5-2" value="&lt;span style=&quot;font-size: 30px;&quot;&gt;Laptop Prof&lt;/span&gt;" style="verticalLabelPosition=bottom;sketch=0;aspect=fixed;html=1;verticalAlign=top;strokeColor=none;align=center;outlineConnect=0;shape=mxgraph.citrix.laptop_1;" vertex="1" parent="1">
          <mxGeometry x="352.5" y="20" width="130" height="110" as="geometry" />
        </mxCell>
        <mxCell id="mdpQiHGGuy0yRPsD_6b5-19" value="Scan" style="text;html=1;align=center;verticalAlign=middle;whiteSpace=wrap;rounded=0;fontSize=25;" vertex="1" parent="1">
          <mxGeometry x="387.5" y="180" width="60" height="30" as="geometry" />
        </mxCell>
      </root>
    </mxGraphModel>
  </diagram>
</mxfile>
